<?xml version="1.0" standalone="no"?>
<!DOCTYPE svg PUBLIC "-//W3C//DTD SVG 20010904//EN"
 "http://www.w3.org/TR/2001/REC-SVG-20010904/DTD/svg10.dtd">
<svg version="1.0" xmlns="http://www.w3.org/2000/svg"
 width="421.000000pt" height="421.000000pt" viewBox="0 0 421.000000 421.000000"
 preserveAspectRatio="xMidYMid meet">
<metadata>
Created by potrace 1.14, written by Peter Selinger 2001-2017
</metadata>
<g transform="translate(0.000000,421.000000) scale(0.100000,-0.100000)"
fill="#000000" stroke="none">
<path d="M1885 3725 c-101 -15 -324 -86 -390 -124 -95 -55 -166 -141 -178
-218 -7 -43 -14 -52 -37 -46 -40 11 -92 -8 -136 -49 -24 -22 -44 -47 -44 -54
0 -8 -4 -14 -10 -14 -5 0 -9 -3 -8 -7 1 -5 -3 -17 -9 -28 -6 -11 -12 -24 -13
-30 -1 -5 -7 -21 -12 -35 -28 -74 -30 -282 -3 -380 37 -140 43 -170 50 -250
10 -136 16 -174 31 -221 8 -25 16 -55 19 -67 3 -19 1 -21 -16 -12 -16 9 -25 6
-49 -19 -28 -27 -30 -35 -30 -99 0 -39 7 -106 15 -149 8 -43 15 -78 15 -78 0
-1 -33 0 -72 0 -142 3 -163 -22 -153 -178 3 -56 8 -149 10 -207 2 -58 7 -139
9 -180 18 -288 25 -569 15 -600 -3 -8 -10 -24 -16 -35 -6 -11 -12 -24 -12 -30
-1 -5 -9 -33 -17 -61 -14 -50 -20 -75 -30 -124 -3 -14 -7 -33 -10 -42 -3 -10
-7 -29 -10 -43 l-4 -24 1314 0 c764 0 1317 3 1321 8 7 13 -58 265 -90 342 -27
68 -28 84 -10 389 2 41 7 127 10 190 3 63 8 158 11 210 21 383 21 382 -131
384 -77 2 -76 -1 -60 76 18 90 21 184 7 221 -15 37 -50 61 -73 49 -24 -14 -33
-12 -22 3 6 6 14 26 18 42 12 45 12 45 15 48 1 1 3 9 5 17 10 46 14 85 20 178
4 60 15 128 27 165 11 34 22 70 24 79 2 10 6 28 9 41 12 46 13 141 3 204 l-10
65 34 33 c60 58 101 169 90 243 -5 33 -17 27 -37 -19 -10 -22 -28 -47 -39 -55
-50 -35 -137 -2 -206 78 -120 138 -284 288 -316 288 -7 0 -14 4 -16 8 -3 7
-87 49 -143 72 -28 11 -133 39 -175 46 -70 12 -405 11 -485 -1z"/>
</g>
</svg>
